<?xml version="1.0" encoding="UTF-8"?>
<svg id="logotipo" xmlns="http://www.w3.org/2000/svg" viewBox="0 0 84.59 84.59">
  <defs>
    <style>
      .cls-1 {
        fill: #fff;
      }

      .cls-2, .cls-3 {
        fill: #9d9d9c;
      }

      .cls-2, .cls-4 {
        fill-rule: evenodd;
      }

      .cls-4 {
        fill: #00908e;
      }
    </style>
  </defs>
  <circle class="cls-1" cx="42.3" cy="42.3" r="42.3"/>
  <g>
    <g>
      <path class="cls-3" d="m29.61,60.71c0,.41-.07.71-.21.92-.14.2-.34.3-.62.3s-.48-.1-.62-.31c-.14-.2-.21-.51-.21-.91v-2.06h-.55v2.07c0,.56.12.98.35,1.27.23.29.58.43,1.03.43s.79-.14,1.03-.43c.23-.29.35-.71.35-1.27v-2.07h-.55v2.06Z"/>
      <path class="cls-3" d="m25.24,58.65l-1.41,3.69h.57l.33-.95h1.6l.34.95h.57l-1.41-3.69h-.59Zm-.37,2.33l.66-1.83.66,1.83h-1.32Z"/>
      <path class="cls-3" d="m14.67,58.65l-1.41,3.69h.57l.33-.95h1.6l.34.95h.57l-1.41-3.69h-.59Zm-.37,2.33l.66-1.83.66,1.83h-1.32Z"/>
      <path class="cls-3" d="m13.22,60.77c-.09-.14-.25-.29-.47-.43-.04-.02-.14-.07-.31-.13-.17-.07-.32-.13-.44-.19-.14-.07-.24-.14-.3-.22-.06-.08-.09-.18-.09-.29,0-.14.05-.25.15-.34.1-.09.22-.13.38-.13.12,0,.24.04.36.11.11.07.23.18.34.33l.37-.35c-.14-.19-.3-.33-.48-.42-.18-.09-.37-.14-.58-.14-.32,0-.57.09-.77.28-.2.19-.3.42-.3.71,0,.24.08.45.23.61.15.16.41.32.78.46.32.13.52.24.61.33.09.09.14.22.14.37,0,.18-.06.33-.17.44-.11.11-.26.16-.46.16s-.36-.05-.49-.16c-.13-.11-.23-.26-.29-.46l-.47.16c.07.3.22.53.44.69.23.17.5.25.83.25s.62-.1.83-.31c.22-.2.32-.47.32-.79,0-.22-.04-.41-.13-.55Z"/>
      <path class="cls-3" d="m14.57,58.16s.08-.04.13-.04c.02,0,.04,0,.06,0,.02,0,.04,0,.06.01l.23.07s.06.02.09.02c.03,0,.05,0,.07,0,.12,0,.23-.04.31-.13.08-.08.14-.2.17-.36h-.21c-.02.06-.05.1-.09.13-.04.03-.08.04-.14.04-.01,0-.03,0-.05,0-.02,0-.04-.01-.08-.02l-.24-.06s-.04-.01-.07-.01c-.02,0-.05,0-.08,0-.12,0-.22.04-.3.12-.08.08-.14.2-.16.36h.21c.02-.05.05-.1.09-.12Z"/>
      <polygon class="cls-3" points="57 57.85 57.42 58.39 57.71 58.39 57.24 57.57 56.76 57.57 56.28 58.39 56.58 58.39 57 57.85"/>
      <path class="cls-3" d="m19.3,59.09c-.14-.17-.31-.3-.51-.39-.2-.09-.42-.13-.66-.13s-.46.04-.66.13c-.2.09-.37.22-.51.38-.15.18-.27.4-.35.63-.08.24-.12.5-.12.78s.04.54.12.78c.08.23.19.45.35.64.14.17.31.29.51.38.2.09.42.13.66.13s.46-.04.66-.13c.2-.09.37-.21.51-.38.15-.19.27-.4.35-.63.08-.23.11-.49.11-.78s-.04-.54-.12-.78c-.08-.24-.19-.45-.34-.63Zm-.4,2.46c-.19.26-.45.39-.77.39s-.58-.13-.77-.39c-.19-.26-.29-.61-.29-1.05s.1-.79.29-1.05c.19-.26.45-.39.77-.39s.58.13.77.39c.19.26.29.61.29,1.05s-.1.79-.29,1.05Z"/>
      <polygon class="cls-3" points="31.32 58.65 30.77 58.65 30.77 62.34 33.52 62.34 33.52 61.85 31.32 61.85 31.32 58.65"/>
      <path class="cls-3" d="m23.82,58.92c-.25-.18-.6-.27-1.07-.27h-1.37v3.69h.55v-1.51h.74c.49,0,.87-.1,1.12-.29.26-.19.38-.47.38-.83s-.12-.61-.37-.79Zm-.45,1.3c-.17.1-.48.14-.93.14h-.49v-1.26h.49c.47,0,.79.05.95.14.16.09.24.25.24.48s-.08.4-.25.5Z"/>
      <path class="cls-3" d="m61.2,60.85c0,.13,0,.25.01.39,0,.13.02.27.04.4-.05-.12-.11-.24-.16-.35-.05-.1-.1-.2-.15-.29l-1.44-2.36h-.57v3.69h.54v-2.22c0-.22,0-.38-.01-.49,0-.11-.02-.21-.03-.3.05.14.1.25.14.33.04.08.08.15.11.21l1.5,2.46h.56v-3.69h-.53v2.2Z"/>
      <polygon class="cls-3" points="55.55 62.34 58.4 62.34 58.4 61.85 56.11 61.85 56.11 60.64 58.27 60.64 58.27 60.18 56.11 60.18 56.11 59.13 58.4 59.13 58.4 58.65 55.55 58.65 55.55 62.34"/>
      <path class="cls-3" d="m63.81,61.93c-.38,0-.67-.13-.89-.39-.22-.26-.33-.61-.33-1.06s.11-.78.32-1.05c.22-.26.5-.39.85-.39.2,0,.39.04.55.12.16.08.31.2.46.36v-.63c-.15-.11-.31-.19-.48-.25-.17-.05-.36-.08-.56-.08-.26,0-.49.04-.69.12-.21.08-.38.2-.53.37-.16.18-.29.39-.37.63-.09.24-.13.51-.13.8s.04.56.13.8c.08.24.21.45.38.63.15.16.34.29.55.37.21.09.44.13.7.13.22,0,.42-.03.6-.08.18-.05.34-.14.49-.25v-.62c-.14.16-.3.27-.47.35-.17.08-.37.12-.57.12Z"/>
      <path class="cls-3" d="m54.3,58.84c-.12-.07-.28-.12-.48-.15-.2-.03-.44-.05-.73-.05h-1.1v3.69h.98c.35,0,.64-.02.85-.05.21-.04.39-.1.52-.18.28-.17.49-.38.63-.66.14-.27.21-.59.21-.97s-.08-.7-.23-.98c-.15-.28-.37-.5-.66-.66Zm.16,2.39c-.11.2-.27.36-.48.48-.08.04-.21.08-.38.1-.17.02-.37.04-.59.04h-.46v-2.72h.45c.26,0,.47.01.63.03.16.02.28.06.37.1.2.11.36.27.47.48.11.21.16.45.16.73,0,.3-.05.55-.16.75Z"/>
      <rect class="cls-3" x="65.1" y="58.65" width=".55" height="3.69"/>
      <path class="cls-3" d="m67.82,58.65h-.59l-1.41,3.69h.57l.33-.95h1.6l.34.95h.57l-1.41-3.69Zm-.96,2.33l.66-1.83.66,1.83h-1.32Z"/>
      <path class="cls-3" d="m35.96,59.09c-.14-.17-.31-.3-.51-.39-.2-.09-.42-.13-.66-.13s-.46.04-.66.13c-.2.09-.37.22-.51.38-.15.18-.27.4-.35.63-.08.24-.12.5-.12.78s.04.54.12.78c.08.23.19.45.35.64.14.17.31.29.51.38.2.09.42.13.66.13s.46-.04.66-.13c.2-.09.37-.21.51-.38.15-.19.27-.4.35-.63.08-.23.11-.49.11-.78s-.04-.54-.11-.78c-.08-.24-.19-.45-.35-.63Zm-.4,2.46c-.19.26-.45.39-.77.39s-.58-.13-.77-.39c-.19-.26-.29-.61-.29-1.05s.1-.79.29-1.05c.19-.26.45-.39.77-.39s.58.13.77.39c.19.26.29.61.29,1.05s-.1.79-.29,1.05Z"/>
      <path class="cls-3" d="m39.41,58.65h-1.37v3.69h.55v-1.51h.74c.49,0,.87-.1,1.12-.29.26-.19.38-.47.38-.83s-.12-.61-.37-.79c-.25-.18-.6-.27-1.07-.27Zm.61,1.58c-.17.1-.48.14-.93.14h-.49v-1.26h.49c.47,0,.79.05.95.14.16.09.24.25.24.48s-.08.4-.25.5Z"/>
      <path class="cls-3" d="m43.62,60.47c.18-.18.28-.42.28-.74,0-.36-.12-.63-.35-.81-.24-.18-.59-.27-1.06-.27h-1.31v3.69h.55v-1.55h.37l1.45,1.55h.71l-1.48-1.55c.37-.04.65-.14.83-.32Zm-1.89-.14v-1.22h.45c.46,0,.77.04.92.13.15.09.23.25.23.48s-.08.38-.25.47c-.17.09-.47.14-.9.14h-.45Z"/>
      <rect class="cls-3" x="50.82" y="58.65" width=".55" height="3.69"/>
      <polygon class="cls-3" points="48.97 61.68 47.83 58.65 47.26 58.65 48.7 62.34 49.22 62.34 50.66 58.65 50.12 58.65 48.97 61.68"/>
      <polygon class="cls-3" points="44.35 62.34 47.2 62.34 47.2 61.85 44.9 61.85 44.9 60.64 47.07 60.64 47.07 60.18 44.9 60.18 44.9 59.13 47.2 59.13 47.2 58.65 44.35 58.65 44.35 62.34"/>
    </g>
    <g>
      <polygon class="cls-2" points="10.92 33.65 25.48 16.29 39.77 16.3 54.35 33.65 69.01 33.65 66.66 36.43 52.75 36.43 38.18 19.07 27.11 19.07 17.21 30.87 27.48 30.87 32.14 36.43 28.19 36.43 25.86 33.65 10.92 33.65"/>
      <polygon class="cls-2" points="40.35 46.22 41.55 47.65 53.32 47.65 54.52 46.22 58.47 46.22 54.93 50.43 54.92 50.43 54.92 50.43 50.99 50.43 43.89 50.43 39.93 50.43 39.93 50.42 36.4 46.22 40.35 46.22"/>
      <path class="cls-4" d="m33.59,38.82h2.13c.62,0,1.12.53,1.12,1.17h0c0,.65-.5,1.17-1.12,1.17h-2.13v-2.35h0Zm-2.49,6.11h2.64s0-2.41,0-2.41c2.2.02,4.43.16,5.34-1.44.74-1.3-.2-3.26-3.12-3.44-.9-.06-3.69-.02-4.86-.02v7.31Z"/>
      <path class="cls-4" d="m43.15,38.82h1.95c.56,0,1.03.53,1.03,1.17h0c0,.65-.46,1.17-1.03,1.17h-1.95v-2.35h0Zm-2.48,6.11h2.48v-2.88h.99l3.17,2.88h2.91l-3.62-3.15c.71-.2,1.26-.47,1.64-.81.38-.35.57-.75.57-1.21,0-.32-.12-.62-.36-.91-.24-.29-.59-.53-1.03-.72-.42-.19-.89-.32-1.43-.4-.54-.08-1.29-.12-2.27-.12h-3.05v7.32Z"/>
      <path class="cls-4" d="m23.48,38.82h2.13c.62,0,1.12.53,1.12,1.17h0c0,.65-.5,1.17-1.12,1.17h-2.13v-2.35h0Zm-2.49,6.11h2.64s0-2.41,0-2.41c2.2.02,4.43.16,5.34-1.44.74-1.3-.2-3.26-3.12-3.44-.9-.06-3.69-.02-4.86-.02v7.31Z"/>
      <path class="cls-4" d="m59.59,37.6c.92,2.02,2.21,4.38,3.24,6.46l.5.87h2l3.73-7.33h-2.3l-2.41,5.44-2.53-5.44h-2.23Z"/>
      <path class="cls-4" d="m58.39,44.93v-1.26h-4.72c-.1-.02-.04.01-.09-.03v-2.01s4.29,0,4.29,0v-1.17l-4.3-.02v-1.59h4.82v-1.24s-7.1,0-7.1,0v7.32s7.1,0,7.1,0Z"/>
      <path class="cls-4" d="m18.78,37.84c-1.02-.24-2-.46-3.29-.46-2.13,0-4.29.61-4.49,2.07-.38,2.75,5.9,2.23,5.52,3.85-.16.7-1.28.95-2.57.9-1.21-.05-2.1-.31-2.98-.6l-.05,1.38c.51.1.94.22,1.53.31,1.65.25,3.41.27,4.83-.24,2.26-.81,2.47-2.77.37-3.71-.47-.21-1.03-.37-1.65-.53-.86-.22-2.16-.47-2.36-1.01-.4-1.06,2-1.54,4.44-.82.2.06.44.17.63.2l.07-1.34Z"/>
    </g>
  </g>
</svg>